{
	"patcher" : 	{
		"fileversion" : 1,
		"appversion" : 		{
			"major" : 8,
			"minor" : 1,
			"revision" : 10,
			"architecture" : "x64",
			"modernui" : 1
		}
,
		"classnamespace" : "box",
		"rect" : [ 0.0, -26.0, 640.0, 506.0 ],
		"bglocked" : 0,
		"openinpresentation" : 0,
		"default_fontsize" : 12.0,
		"default_fontface" : 0,
		"default_fontname" : "Arial",
		"gridonopen" : 1,
		"gridsize" : [ 15.0, 15.0 ],
		"gridsnaponopen" : 1,
		"objectsnaponopen" : 1,
		"statusbarvisible" : 2,
		"toolbarvisible" : 1,
		"lefttoolbarpinned" : 0,
		"toptoolbarpinned" : 0,
		"righttoolbarpinned" : 0,
		"bottomtoolbarpinned" : 0,
		"toolbars_unpinned_last_save" : 0,
		"tallnewobj" : 0,
		"boxanimatetime" : 200,
		"enablehscroll" : 1,
		"enablevscroll" : 1,
		"devicewidth" : 0.0,
		"description" : "",
		"digest" : "",
		"tags" : "",
		"style" : "",
		"subpatcher_template" : "",
		"assistshowspatchername" : 0,
		"boxes" : [ 			{
				"box" : 				{
					"bgmode" : 0,
					"border" : 0,
					"clickthrough" : 0,
					"enablehscroll" : 0,
					"enablevscroll" : 0,
					"extract" : 1,
					"id" : "obj-16",
					"lockeddragscroll" : 0,
					"maxclass" : "bpatcher",
					"name" : "bp.Audio Mixer.maxpat",
					"numinlets" : 4,
					"numoutlets" : 1,
					"offset" : [ 0.0, 0.0 ],
					"outlettype" : [ "signal" ],
					"patching_rect" : [ 915.5, 732.254260877966772, 201.0, 116.0 ],
					"varname" : "bp.Audio Mixer",
					"viewvisibility" : 1
				}

			}
, 			{
				"box" : 				{
					"bgmode" : 0,
					"border" : 0,
					"clickthrough" : 0,
					"enablehscroll" : 0,
					"enablevscroll" : 0,
					"extract" : 1,
					"id" : "obj-14",
					"lockeddragscroll" : 0,
					"maxclass" : "bpatcher",
					"name" : "bp.Stereo.maxpat",
					"numinlets" : 2,
					"numoutlets" : 0,
					"offset" : [ 0.0, 0.0 ],
					"patching_rect" : [ 915.5, 876.0, 148.0, 116.0 ],
					"varname" : "bp.Stereo[1]",
					"viewvisibility" : 1
				}

			}
, 			{
				"box" : 				{
					"id" : "obj-109",
					"maxclass" : "message",
					"numinlets" : 2,
					"numoutlets" : 1,
					"outlettype" : [ "" ],
					"patching_rect" : [ 379.5, 633.0, 108.0, 22.0 ],
					"text" : "131 85"
				}

			}
, 			{
				"box" : 				{
					"id" : "obj-110",
					"maxclass" : "newobj",
					"numinlets" : 1,
					"numoutlets" : 1,
					"outlettype" : [ "" ],
					"patching_rect" : [ 379.5, 581.0, 72.0, 22.0 ],
					"text" : "prepend set"
				}

			}
, 			{
				"box" : 				{
					"id" : "obj-108",
					"maxclass" : "newobj",
					"numinlets" : 1,
					"numoutlets" : 1,
					"outlettype" : [ "" ],
					"patching_rect" : [ 384.249997496604919, 507.138034820556641, 81.0, 22.0 ],
					"text" : "vexpr $i1 / 10"
				}

			}
, 			{
				"box" : 				{
					"id" : "obj-107",
					"maxclass" : "newobj",
					"numinlets" : 2,
					"numoutlets" : 1,
					"outlettype" : [ "" ],
					"patching_rect" : [ 384.0, 466.0, 34.0, 22.0 ],
					"text" : "pack"
				}

			}
, 			{
				"box" : 				{
					"id" : "obj-104",
					"maxclass" : "newobj",
					"numinlets" : 5,
					"numoutlets" : 1,
					"outlettype" : [ "" ],
					"patching_rect" : [ 507.666666666666629, 507.201097574233927, 84.0, 22.0 ],
					"text" : "pack 0 0 0 0 0"
				}

			}
, 			{
				"box" : 				{
					"id" : "obj-100",
					"maxclass" : "newobj",
					"numinlets" : 1,
					"numoutlets" : 7,
					"outlettype" : [ "int", "int", "int", "int", "int", "int", "int" ],
					"patching_rect" : [ 474.9329048395158, 461.638871371746063, 117.0, 22.0 ],
					"text" : "unpack 0 0 0 0 0 0 0"
				}

			}
, 			{
				"box" : 				{
					"id" : "obj-95",
					"maxclass" : "newobj",
					"numinlets" : 1,
					"numoutlets" : 1,
					"outlettype" : [ "" ],
					"patching_rect" : [ 474.9329048395158, 430.138034820556641, 123.0, 22.0 ],
					"text" : "vexpr abs(10000*$f1)"
				}

			}
, 			{
				"box" : 				{
					"id" : "obj-75",
					"maxclass" : "message",
					"numinlets" : 2,
					"numoutlets" : 1,
					"outlettype" : [ "" ],
					"patching_rect" : [ 513.046290308237076, 633.0, 102.0, 22.0 ],
					"text" : "8 6 24 185 0"
				}

			}
, 			{
				"box" : 				{
					"id" : "obj-74",
					"maxclass" : "newobj",
					"numinlets" : 1,
					"numoutlets" : 1,
					"outlettype" : [ "" ],
					"patching_rect" : [ 481.5, 581.0, 72.0, 22.0 ],
					"text" : "prepend set"
				}

			}
, 			{
				"box" : 				{
					"bgmode" : 0,
					"border" : 0,
					"clickthrough" : 0,
					"enablehscroll" : 0,
					"enablevscroll" : 0,
					"extract" : 1,
					"id" : "obj-73",
					"lockeddragscroll" : 0,
					"maxclass" : "bpatcher",
					"name" : "bp.Classroom Filter.maxpat",
					"numinlets" : 4,
					"numoutlets" : 1,
					"offset" : [ 0.0, 0.0 ],
					"outlettype" : [ "signal" ],
					"patching_rect" : [ 1169.0, 511.5, 558.0, 223.0 ],
					"varname" : "bp.Classroom Filter[1]",
					"viewvisibility" : 1
				}

			}
, 			{
				"box" : 				{
					"fontname" : "Arial",
					"fontsize" : 9.0,
					"id" : "obj-24",
					"maxclass" : "newobj",
					"numinlets" : 1,
					"numoutlets" : 5,
					"outlettype" : [ "", "", "", "", "" ],
					"patching_rect" : [ 544.0, 200.616399461633705, 78.0, 19.0 ],
					"text" : "cv.jit.moments"
				}

			}
, 			{
				"box" : 				{
					"fontname" : "Arial",
					"fontsize" : 9.0,
					"id" : "obj-71",
					"maxclass" : "newobj",
					"numinlets" : 2,
					"numoutlets" : 2,
					"outlettype" : [ "jit_matrix", "" ],
					"patching_rect" : [ 485.0, 155.749266788363457, 109.0, 19.0 ],
					"text" : "jit.op @op < @val 172"
				}

			}
, 			{
				"box" : 				{
					"id" : "obj-65",
					"maxclass" : "jit.pwindow",
					"numinlets" : 1,
					"numoutlets" : 2,
					"outlettype" : [ "jit_matrix", "" ],
					"patching_rect" : [ 462.0, 292.7931067943573, 160.0, 120.0 ]
				}

			}
, 			{
				"box" : 				{
					"bgcolor" : [ 0.866667, 0.866667, 0.866667, 1.0 ],
					"fontname" : "Arial",
					"fontsize" : 9.0,
					"id" : "obj-66",
					"maxclass" : "number",
					"maximum" : 255,
					"minimum" : 0,
					"numinlets" : 1,
					"numoutlets" : 2,
					"outlettype" : [ "", "bang" ],
					"parameter_enable" : 0,
					"patching_rect" : [ 618.0, 149.0, 35.0, 19.0 ],
					"textcolor" : [ 0.0, 0.0, 0.0, 1.0 ],
					"triscale" : 0.9
				}

			}
, 			{
				"box" : 				{
					"bgmode" : 0,
					"border" : 0,
					"clickthrough" : 0,
					"enablehscroll" : 0,
					"enablevscroll" : 0,
					"extract" : 1,
					"id" : "obj-101",
					"lockeddragscroll" : 0,
					"maxclass" : "bpatcher",
					"name" : "bp.Classroom Filter.maxpat",
					"numinlets" : 4,
					"numoutlets" : 1,
					"offset" : [ 0.0, 0.0 ],
					"outlettype" : [ "signal" ],
					"patching_rect" : [ 1233.0, 254.638871371746063, 558.0, 223.0 ],
					"varname" : "bp.Classroom Filter",
					"viewvisibility" : 1
				}

			}
, 			{
				"box" : 				{
					"bgmode" : 0,
					"border" : 0,
					"clickthrough" : 0,
					"enablehscroll" : 0,
					"enablevscroll" : 0,
					"extract" : 1,
					"id" : "obj-63",
					"lockeddragscroll" : 0,
					"maxclass" : "bpatcher",
					"name" : "bp.Quantizer-MIDI.maxpat",
					"numinlets" : 1,
					"numoutlets" : 1,
					"offset" : [ 0.0, 0.0 ],
					"outlettype" : [ "int" ],
					"patching_rect" : [ 136.427556097507477, 764.254260877966772, 217.0, 117.0 ],
					"varname" : "bp.Quantizer-MIDI[2]",
					"viewvisibility" : 1
				}

			}
, 			{
				"box" : 				{
					"id" : "obj-60",
					"maxclass" : "newobj",
					"numinlets" : 2,
					"numoutlets" : 1,
					"outlettype" : [ "" ],
					"patching_rect" : [ 44.5, 859.254260877966772, 34.0, 22.0 ],
					"text" : "pack"
				}

			}
, 			{
				"box" : 				{
					"id" : "obj-61",
					"maxclass" : "newobj",
					"numinlets" : 7,
					"numoutlets" : 2,
					"outlettype" : [ "int", "" ],
					"patching_rect" : [ 44.5, 903.254260877966772, 82.0, 22.0 ],
					"text" : "midiformat"
				}

			}
, 			{
				"box" : 				{
					"id" : "obj-62",
					"maxclass" : "newobj",
					"numinlets" : 3,
					"numoutlets" : 2,
					"outlettype" : [ "float", "float" ],
					"patching_rect" : [ 4.0, 818.254260877966772, 115.0, 22.0 ],
					"text" : "makenote 100 1000"
				}

			}
, 			{
				"box" : 				{
					"id" : "obj-59",
					"maxclass" : "number",
					"numinlets" : 1,
					"numoutlets" : 2,
					"outlettype" : [ "", "bang" ],
					"parameter_enable" : 0,
					"patching_rect" : [ 14.659680783748627, 775.0, 63.0, 22.0 ]
				}

			}
, 			{
				"box" : 				{
					"id" : "obj-58",
					"maxclass" : "newobj",
					"numinlets" : 6,
					"numoutlets" : 1,
					"outlettype" : [ "" ],
					"patching_rect" : [ 14.659680783748627, 742.5, 117.0, 22.0 ],
					"text" : "scale 60 170 30 120"
				}

			}
, 			{
				"box" : 				{
					"id" : "obj-56",
					"maxclass" : "newobj",
					"numinlets" : 1,
					"numoutlets" : 2,
					"outlettype" : [ "", "" ],
					"patching_rect" : [ 38.165770798921585, 589.000000000000114, 127.0, 22.0 ],
					"text" : "jit.spill @listlength 240"
				}

			}
, 			{
				"box" : 				{
					"id" : "obj-54",
					"maxclass" : "multislider",
					"numinlets" : 1,
					"numoutlets" : 2,
					"outlettype" : [ "", "" ],
					"parameter_enable" : 0,
					"patching_rect" : [ 35.567095160484314, 625.2546256929636, 278.592585623264313, 88.999635185003285 ],
					"setminmax" : [ 50.0, 170.0 ],
					"settype" : 0,
					"size" : 240
				}

			}
, 			{
				"box" : 				{
					"id" : "obj-52",
					"maxclass" : "message",
					"numinlets" : 2,
					"numoutlets" : 1,
					"outlettype" : [ "" ],
					"patching_rect" : [ 803.402588543891966, 31.7931067943573, 29.5, 22.0 ],
					"text" : "100"
				}

			}
, 			{
				"box" : 				{
					"id" : "obj-121",
					"maxclass" : "multislider",
					"numinlets" : 1,
					"numoutlets" : 2,
					"outlettype" : [ "", "" ],
					"parameter_enable" : 0,
					"patching_rect" : [ 764.703707188367844, 251.616399461633705, 265.592585623264199, 107.999635185003285 ],
					"setminmax" : [ 50.0, 180.0 ],
					"settype" : 0,
					"size" : 240
				}

			}
, 			{
				"box" : 				{
					"id" : "obj-11",
					"maxclass" : "number",
					"numinlets" : 1,
					"numoutlets" : 2,
					"outlettype" : [ "", "bang" ],
					"parameter_enable" : 0,
					"patching_rect" : [ 915.5, 61.63164684176445, 50.0, 22.0 ]
				}

			}
, 			{
				"box" : 				{
					"id" : "obj-8",
					"maxclass" : "number",
					"numinlets" : 1,
					"numoutlets" : 2,
					"outlettype" : [ "", "bang" ],
					"parameter_enable" : 0,
					"patching_rect" : [ 968.601475532054792, 61.63164684176445, 50.0, 22.0 ]
				}

			}
, 			{
				"box" : 				{
					"bgmode" : 0,
					"border" : 0,
					"clickthrough" : 0,
					"enablehscroll" : 0,
					"enablevscroll" : 0,
					"extract" : 1,
					"id" : "obj-55",
					"lockeddragscroll" : 0,
					"maxclass" : "bpatcher",
					"name" : "bp.Quantizer-MIDI.maxpat",
					"numinlets" : 1,
					"numoutlets" : 1,
					"offset" : [ 0.0, 0.0 ],
					"outlettype" : [ "int" ],
					"patching_rect" : [ 880.249997496604919, 534.499999999999886, 217.0, 117.0 ],
					"varname" : "bp.Quantizer-MIDI[1]",
					"viewvisibility" : 1
				}

			}
, 			{
				"box" : 				{
					"autosave" : 1,
					"bgmode" : 1,
					"border" : 0,
					"clickthrough" : 0,
					"enablehscroll" : 0,
					"enablevscroll" : 0,
					"id" : "obj-29",
					"linecount" : 2,
					"lockeddragscroll" : 0,
					"maxclass" : "newobj",
					"numinlets" : 3,
					"numoutlets" : 4,
					"offset" : [ 0.0, 0.0 ],
					"outlettype" : [ "signal", "signal", "", "" ],
					"patching_rect" : [ 1114.0, 20.675637293899996, 343.0, 196.0 ],
					"presentation_linecount" : 2,
					"saved_attribute_attributes" : 					{
						"valueof" : 						{
							"parameter_invisible" : 1,
							"parameter_longname" : "amxd~[1]",
							"parameter_shortname" : "amxd~[1]",
							"parameter_type" : 3
						}

					}
,
					"saved_object_attributes" : 					{
						"parameter_enable" : 1,
						"patchername" : "Additive Heaven.amxd",
						"patchername_fallback" : "C74:/packages/Max for Live/patchers/Max Instrument/Additive Heaven/Additive Heaven.amxd"
					}
,
					"snapshot" : 					{
						"filetype" : "C74Snapshot",
						"version" : 2,
						"minorversion" : 0,
						"name" : "snapshotlist",
						"origin" : "max~",
						"type" : "list",
						"subtype" : "Undefined",
						"embed" : 1,
						"snapshot" : 						{
							"name" : "Additive Heaven.amxd",
							"origname" : "C74:/packages/Max for Live/patchers/Max Instrument/Additive Heaven/Additive Heaven.amxd",
							"valuedictionary" : 							{
								"parameter_values" : 								{
									"attack" : 14.0,
									"decay" : 55.0,
									"env_curve" : 0.106299212598426,
									"harm_num_2" : 12.0,
									"harm_num_3" : 39.0,
									"harm_num_4" : 8.0,
									"harm_num_5" : 25.0,
									"harm_num_6" : 102.0,
									"harm_num_7" : 103.0,
									"harm_num_8" : 39.0,
									"harm_val_2" : 0.98,
									"harm_val_3" : 3.0,
									"harm_val_4" : 0.66,
									"harm_val_5" : 1.98,
									"harm_val_6" : 8.0,
									"harm_val_7" : 8.02,
									"harm_val_8" : 3.0,
									"harmonic_2" : 12.0,
									"harmonic_3" : 39.0,
									"harmonic_4" : 8.0,
									"harmonic_5" : 25.0,
									"harmonic_6" : 102.0,
									"harmonic_7" : 103.0,
									"harmonic_8" : 39.0,
									"level" : -11.660292463442076,
									"pan_1" : 33.0,
									"pan_2" : -16.0,
									"pan_3" : -8.0,
									"pan_4" : 4.0,
									"pan_5" : -21.0,
									"pan_6" : 19.0,
									"pan_7" : -51.0,
									"pan_8" : 56.0,
									"polyphony" : 16.0,
									"release" : 69.0,
									"sustain" : 69.0,
									"vol_harm" : 0.0,
									"vol_num_1" : 33.0,
									"vol_num_2" : 51.0,
									"vol_num_3" : 45.0,
									"vol_num_4" : 68.0,
									"vol_num_5" : 45.0,
									"vol_num_6" : 75.0,
									"vol_num_7" : 53.0,
									"vol_num_8" : 0.0,
									"volume_1" : 33.0,
									"volume_2" : 51.0,
									"volume_3" : 45.0,
									"volume_4" : 68.0,
									"volume_5" : 45.0,
									"volume_6" : 75.0,
									"volume_7" : 53.0,
									"volume_8" : 0.0
								}

							}

						}
,
						"snapshotlist" : 						{
							"current_snapshot" : 0,
							"entries" : [ 								{
									"filetype" : "C74Snapshot",
									"version" : 2,
									"minorversion" : 0,
									"name" : "Additive Heaven.amxd",
									"origin" : "Additive Heaven.amxd",
									"type" : "amxd",
									"subtype" : "Undefined",
									"embed" : 0,
									"snapshot" : 									{
										"name" : "Additive Heaven.amxd",
										"origname" : "C74:/packages/Max for Live/patchers/Max Instrument/Additive Heaven/Additive Heaven.amxd",
										"valuedictionary" : 										{
											"parameter_values" : 											{
												"attack" : 14.0,
												"decay" : 55.0,
												"env_curve" : 0.106299212598426,
												"harm_num_2" : 12.0,
												"harm_num_3" : 39.0,
												"harm_num_4" : 8.0,
												"harm_num_5" : 25.0,
												"harm_num_6" : 102.0,
												"harm_num_7" : 103.0,
												"harm_num_8" : 39.0,
												"harm_val_2" : 0.98,
												"harm_val_3" : 3.0,
												"harm_val_4" : 0.66,
												"harm_val_5" : 1.98,
												"harm_val_6" : 8.0,
												"harm_val_7" : 8.02,
												"harm_val_8" : 3.0,
												"harmonic_2" : 12.0,
												"harmonic_3" : 39.0,
												"harmonic_4" : 8.0,
												"harmonic_5" : 25.0,
												"harmonic_6" : 102.0,
												"harmonic_7" : 103.0,
												"harmonic_8" : 39.0,
												"level" : -11.660292463442076,
												"pan_1" : 33.0,
												"pan_2" : -16.0,
												"pan_3" : -8.0,
												"pan_4" : 4.0,
												"pan_5" : -21.0,
												"pan_6" : 19.0,
												"pan_7" : -51.0,
												"pan_8" : 56.0,
												"polyphony" : 16.0,
												"release" : 69.0,
												"sustain" : 69.0,
												"vol_harm" : 0.0,
												"vol_num_1" : 33.0,
												"vol_num_2" : 51.0,
												"vol_num_3" : 45.0,
												"vol_num_4" : 68.0,
												"vol_num_5" : 45.0,
												"vol_num_6" : 75.0,
												"vol_num_7" : 53.0,
												"vol_num_8" : 0.0,
												"volume_1" : 33.0,
												"volume_2" : 51.0,
												"volume_3" : 45.0,
												"volume_4" : 68.0,
												"volume_5" : 45.0,
												"volume_6" : 75.0,
												"volume_7" : 53.0,
												"volume_8" : 0.0
											}

										}

									}
,
									"fileref" : 									{
										"name" : "Additive Heaven.amxd",
										"filename" : "Additive Heaven.amxd.maxsnap",
										"filepath" : "~/Documents/Max 8/Snapshots",
										"filepos" : -1,
										"snapshotfileid" : "afd18908fe7e4dbe20053345fda22a3a"
									}

								}
 ]
						}

					}
,
					"text" : "amxd~ \"C74:/packages/Max for Live/patchers/Max Instrument/Additive Heaven/Additive Heaven.amxd\"",
					"varname" : "amxd~[1]",
					"viewvisibility" : 1
				}

			}
, 			{
				"box" : 				{
					"id" : "obj-46",
					"maxclass" : "newobj",
					"numinlets" : 2,
					"numoutlets" : 1,
					"outlettype" : [ "" ],
					"patching_rect" : [ 780.703707188367844, 584.349259939193644, 34.0, 22.0 ],
					"text" : "pack"
				}

			}
, 			{
				"box" : 				{
					"id" : "obj-44",
					"maxclass" : "newobj",
					"numinlets" : 7,
					"numoutlets" : 2,
					"outlettype" : [ "int", "" ],
					"patching_rect" : [ 780.703707188367844, 628.349259939193644, 82.0, 22.0 ],
					"text" : "midiformat"
				}

			}
, 			{
				"box" : 				{
					"id" : "obj-33",
					"maxclass" : "number",
					"numinlets" : 1,
					"numoutlets" : 2,
					"outlettype" : [ "", "bang" ],
					"parameter_enable" : 0,
					"patching_rect" : [ 761.249997496604919, 422.349259939193644, 63.0, 22.0 ]
				}

			}
, 			{
				"box" : 				{
					"id" : "obj-31",
					"maxclass" : "number",
					"numinlets" : 1,
					"numoutlets" : 2,
					"outlettype" : [ "", "bang" ],
					"parameter_enable" : 0,
					"patching_rect" : [ 774.749997496605033, 149.0, 50.0, 22.0 ]
				}

			}
, 			{
				"box" : 				{
					"id" : "obj-30",
					"maxclass" : "newobj",
					"numinlets" : 3,
					"numoutlets" : 1,
					"outlettype" : [ "" ],
					"patching_rect" : [ 891.0, 100.7931067943573, 119.0, 22.0 ],
					"text" : "expr random($i2\\,$i3)"
				}

			}
, 			{
				"box" : 				{
					"fontname" : "Arial",
					"fontsize" : 9.0,
					"id" : "obj-9",
					"maxclass" : "newobj",
					"numinlets" : 1,
					"numoutlets" : 2,
					"outlettype" : [ "jit_matrix", "" ],
					"patching_rect" : [ 451.0, 83.777859414226555, 66.0, 19.0 ],
					"text" : "jit.rgb2luma"
				}

			}
, 			{
				"box" : 				{
					"fontname" : "Arial",
					"fontsize" : 9.0,
					"id" : "obj-19",
					"maxclass" : "newobj",
					"numinlets" : 1,
					"numoutlets" : 2,
					"outlettype" : [ "jit_matrix", "" ],
					"patching_rect" : [ 451.0, 124.7931067943573, 105.0, 19.0 ],
					"text" : "cv.jit.resize @size 240 1"
				}

			}
, 			{
				"box" : 				{
					"fontname" : "Arial",
					"fontsize" : 9.0,
					"id" : "obj-98",
					"maxclass" : "newobj",
					"numinlets" : 1,
					"numoutlets" : 2,
					"outlettype" : [ "jit_matrix", "" ],
					"patching_rect" : [ 572.0, 124.7931067943573, 95.0, 19.0 ],
					"text" : "jit.matrix 4 char 1 240"
				}

			}
, 			{
				"box" : 				{
					"id" : "obj-18",
					"maxclass" : "number",
					"numinlets" : 1,
					"numoutlets" : 2,
					"outlettype" : [ "", "bang" ],
					"parameter_enable" : 0,
					"patching_rect" : [ 968.601475532054792, 385.835709571838379, 50.0, 22.0 ]
				}

			}
, 			{
				"box" : 				{
					"id" : "obj-15",
					"maxclass" : "button",
					"numinlets" : 1,
					"numoutlets" : 1,
					"outlettype" : [ "bang" ],
					"parameter_enable" : 0,
					"patching_rect" : [ 776.402588543891966, 108.7931067943573, 24.0, 24.0 ]
				}

			}
, 			{
				"box" : 				{
					"id" : "obj-12",
					"maxclass" : "newobj",
					"numinlets" : 2,
					"numoutlets" : 1,
					"outlettype" : [ "bang" ],
					"patching_rect" : [ 776.402588543891966, 70.7931067943573, 46.0, 22.0 ],
					"text" : "qmetro"
				}

			}
, 			{
				"box" : 				{
					"id" : "obj-10",
					"maxclass" : "number",
					"numinlets" : 1,
					"numoutlets" : 2,
					"outlettype" : [ "", "bang" ],
					"parameter_enable" : 0,
					"patching_rect" : [ 927.0, 187.819435685873032, 50.0, 22.0 ]
				}

			}
, 			{
				"box" : 				{
					"id" : "obj-3",
					"maxclass" : "newobj",
					"numinlets" : 1,
					"numoutlets" : 4,
					"outlettype" : [ "", "", "", "" ],
					"patching_rect" : [ 927.0, 130.0, 50.5, 22.0 ],
					"text" : "jit.3m"
				}

			}
, 			{
				"box" : 				{
					"id" : "obj-2",
					"maxclass" : "newobj",
					"numinlets" : 3,
					"numoutlets" : 2,
					"outlettype" : [ "float", "float" ],
					"patching_rect" : [ 740.203707188367844, 543.349259939193644, 115.0, 22.0 ],
					"text" : "makenote 100 1000"
				}

			}
, 			{
				"box" : 				{
					"id" : "obj-131",
					"maxclass" : "message",
					"numinlets" : 2,
					"numoutlets" : 1,
					"outlettype" : [ "" ],
					"patching_rect" : [ 774.749997496605033, 187.819435685873032, 51.0, 22.0 ],
					"text" : "fetch $1"
				}

			}
, 			{
				"box" : 				{
					"id" : "obj-103",
					"maxclass" : "newobj",
					"numinlets" : 6,
					"numoutlets" : 1,
					"outlettype" : [ "" ],
					"patching_rect" : [ 761.249997496604919, 380.849259939193644, 117.0, 22.0 ],
					"text" : "scale 60 170 30 120"
				}

			}
, 			{
				"box" : 				{
					"id" : "obj-102",
					"maxclass" : "kslider",
					"numinlets" : 2,
					"numoutlets" : 2,
					"outlettype" : [ "int", "int" ],
					"parameter_enable" : 0,
					"patching_rect" : [ 761.249997496604919, 468.275178756713785, 336.0, 53.0 ]
				}

			}
, 			{
				"box" : 				{
					"id" : "obj-87",
					"maxclass" : "newobj",
					"numinlets" : 1,
					"numoutlets" : 2,
					"outlettype" : [ "", "" ],
					"patching_rect" : [ 496.932904839515686, 240.616399461633705, 182.0, 22.0 ],
					"text" : "jit.spill @listlength 240 @plane 1"
				}

			}
, 			{
				"box" : 				{
					"fontname" : "Arial",
					"fontsize" : 9.0,
					"id" : "obj-1",
					"maxclass" : "message",
					"numinlets" : 2,
					"numoutlets" : 1,
					"outlettype" : [ "" ],
					"patching_rect" : [ 209.567089796066284, 75.7931067943573, 56.0, 19.0 ],
					"text" : "@vdevice 0"
				}

			}
, 			{
				"box" : 				{
					"id" : "obj-4",
					"maxclass" : "jit.pwindow",
					"numinlets" : 1,
					"numoutlets" : 2,
					"outlettype" : [ "jit_matrix", "" ],
					"patching_rect" : [ 174.53844141960144, 366.835709571838379, 62.488370180130005, 167.302325248718262 ]
				}

			}
, 			{
				"box" : 				{
					"id" : "obj-5",
					"maxclass" : "jit.pwindow",
					"numinlets" : 1,
					"numoutlets" : 2,
					"outlettype" : [ "jit_matrix", "" ],
					"patching_rect" : [ 69.050068557262421, 366.835709571838379, 78.279067397117615, 167.302325248718262 ]
				}

			}
, 			{
				"box" : 				{
					"angle" : 270.0,
					"bgcolor" : [ 0.823529, 0.823529, 0.764706, 1.0 ],
					"border" : 1,
					"bordercolor" : [ 1.0, 1.0, 1.0, 1.0 ],
					"id" : "obj-57",
					"maxclass" : "panel",
					"mode" : 0,
					"numinlets" : 1,
					"numoutlets" : 0,
					"patching_rect" : [ 36.864885926246643, 351.258621037006378, 235.880271792411804, 204.241378962993622 ],
					"proportion" : 0.39,
					"rounded" : 0
				}

			}
, 			{
				"box" : 				{
					"fontname" : "Arial",
					"fontsize" : 9.0,
					"id" : "obj-35",
					"maxclass" : "message",
					"numinlets" : 2,
					"numoutlets" : 1,
					"outlettype" : [ "" ],
					"patching_rect" : [ 164.427556097507477, 75.7931067943573, 31.0, 19.0 ],
					"text" : "close"
				}

			}
, 			{
				"box" : 				{
					"id" : "obj-51",
					"maxclass" : "jit.pwindow",
					"numinlets" : 1,
					"numoutlets" : 2,
					"outlettype" : [ "jit_matrix", "" ],
					"patching_rect" : [ 50.567095160484314, 155.749266788363457, 211.197617173194885, 148.14033779501915 ]
				}

			}
, 			{
				"box" : 				{
					"fontname" : "Arial",
					"fontsize" : 9.0,
					"id" : "obj-28",
					"maxclass" : "comment",
					"numinlets" : 1,
					"numoutlets" : 0,
					"patching_rect" : [ 72.567095160484314, 52.7931067943573, 105.0, 17.0 ],
					"text" : "Use live camera input"
				}

			}
, 			{
				"box" : 				{
					"fontname" : "Arial",
					"fontsize" : 9.0,
					"id" : "obj-36",
					"maxclass" : "message",
					"numinlets" : 2,
					"numoutlets" : 1,
					"outlettype" : [ "" ],
					"patching_rect" : [ 115.864885926246643, 75.7931067943573, 30.0, 19.0 ],
					"text" : "open"
				}

			}
, 			{
				"box" : 				{
					"id" : "obj-37",
					"maxclass" : "toggle",
					"numinlets" : 1,
					"numoutlets" : 1,
					"outlettype" : [ "int" ],
					"parameter_enable" : 0,
					"patching_rect" : [ 50.567095160484314, 51.7931067943573, 15.0, 15.0 ]
				}

			}
, 			{
				"box" : 				{
					"fontface" : 0,
					"fontname" : "Arial",
					"fontsize" : 9.0,
					"id" : "obj-38",
					"maxclass" : "newobj",
					"numinlets" : 2,
					"numoutlets" : 1,
					"outlettype" : [ "bang" ],
					"patching_rect" : [ 50.067095160484314, 75.7931067943573, 54.0, 19.0 ],
					"text" : "qmetro 100"
				}

			}
, 			{
				"box" : 				{
					"fontname" : "Arial",
					"fontsize" : 9.0,
					"id" : "obj-39",
					"maxclass" : "newobj",
					"numinlets" : 1,
					"numoutlets" : 2,
					"outlettype" : [ "jit_matrix", "" ],
					"patching_rect" : [ 50.567095160484314, 105.7931067943573, 117.0, 19.0 ],
					"text" : "jit.grab 640 480 @unique 1"
				}

			}
, 			{
				"box" : 				{
					"angle" : 270.0,
					"bgcolor" : [ 0.54902, 0.54902, 0.54902, 1.0 ],
					"id" : "obj-42",
					"maxclass" : "panel",
					"mode" : 0,
					"numinlets" : 1,
					"numoutlets" : 0,
					"patching_rect" : [ 35.567095160484314, 29.7931067943573, 274.0, 104.2068932056427 ],
					"proportion" : 0.39,
					"rounded" : 0
				}

			}
, 			{
				"box" : 				{
					"angle" : 270.0,
					"bgcolor" : [ 0.54902, 0.54902, 0.54902, 1.0 ],
					"id" : "obj-53",
					"maxclass" : "panel",
					"mode" : 0,
					"numinlets" : 1,
					"numoutlets" : 0,
					"patching_rect" : [ 36.864885926246643, 145.0, 238.702209234237671, 169.638871371746063 ],
					"proportion" : 0.39,
					"rounded" : 0
				}

			}
, 			{
				"box" : 				{
					"angle" : 270.0,
					"bgcolor" : [ 0.968627, 0.972549, 0.972549, 1.0 ],
					"border" : 1,
					"bordercolor" : [ 0.584314, 0.215686, 0.215686, 1.0 ],
					"id" : "obj-40",
					"maxclass" : "panel",
					"mode" : 0,
					"numinlets" : 1,
					"numoutlets" : 0,
					"patching_rect" : [ 443.0, 76.800331324338913, 239.0, 153.816068137294792 ],
					"proportion" : 0.39,
					"rounded" : 0
				}

			}
, 			{
				"box" : 				{
					"angle" : 270.0,
					"bgcolor" : [ 0.823529, 0.823529, 0.764706, 1.0 ],
					"border" : 1,
					"bordercolor" : [ 1.0, 1.0, 1.0, 1.0 ],
					"id" : "obj-6",
					"maxclass" : "panel",
					"mode" : 0,
					"numinlets" : 1,
					"numoutlets" : 0,
					"patching_rect" : [ 754.626959264278412, 20.675637293899996, 290.880271792411804, 198.940762167733709 ],
					"proportion" : 0.39,
					"rounded" : 0
				}

			}
 ],
		"lines" : [ 			{
				"patchline" : 				{
					"destination" : [ "obj-39", 0 ],
					"source" : [ "obj-1", 0 ]
				}

			}
, 			{
				"patchline" : 				{
					"destination" : [ "obj-2", 1 ],
					"midpoints" : [ 936.5, 237.0, 747.0, 237.0, 747.0, 534.0, 797.703707188367844, 534.0 ],
					"source" : [ "obj-10", 0 ]
				}

			}
, 			{
				"patchline" : 				{
					"destination" : [ "obj-104", 4 ],
					"source" : [ "obj-100", 6 ]
				}

			}
, 			{
				"patchline" : 				{
					"destination" : [ "obj-104", 3 ],
					"source" : [ "obj-100", 5 ]
				}

			}
, 			{
				"patchline" : 				{
					"destination" : [ "obj-104", 2 ],
					"source" : [ "obj-100", 4 ]
				}

			}
, 			{
				"patchline" : 				{
					"destination" : [ "obj-104", 1 ],
					"source" : [ "obj-100", 3 ]
				}

			}
, 			{
				"patchline" : 				{
					"destination" : [ "obj-104", 0 ],
					"source" : [ "obj-100", 2 ]
				}

			}
, 			{
				"patchline" : 				{
					"destination" : [ "obj-107", 1 ],
					"source" : [ "obj-100", 1 ]
				}

			}
, 			{
				"patchline" : 				{
					"destination" : [ "obj-107", 0 ],
					"source" : [ "obj-100", 0 ]
				}

			}
, 			{
				"patchline" : 				{
					"destination" : [ "obj-16", 0 ],
					"source" : [ "obj-101", 0 ]
				}

			}
, 			{
				"patchline" : 				{
					"destination" : [ "obj-2", 0 ],
					"source" : [ "obj-102", 0 ]
				}

			}
, 			{
				"patchline" : 				{
					"destination" : [ "obj-33", 0 ],
					"source" : [ "obj-103", 0 ]
				}

			}
, 			{
				"patchline" : 				{
					"destination" : [ "obj-74", 0 ],
					"source" : [ "obj-104", 0 ]
				}

			}
, 			{
				"patchline" : 				{
					"destination" : [ "obj-108", 0 ],
					"source" : [ "obj-107", 0 ]
				}

			}
, 			{
				"patchline" : 				{
					"destination" : [ "obj-110", 0 ],
					"source" : [ "obj-108", 0 ]
				}

			}
, 			{
				"patchline" : 				{
					"destination" : [ "obj-103", 1 ],
					"midpoints" : [ 925.0, 84.0, 837.0, 84.0, 837.0, 237.0, 750.0, 237.0, 750.0, 375.0, 790.349997496604942, 375.0 ],
					"order" : 1,
					"source" : [ "obj-11", 0 ]
				}

			}
, 			{
				"patchline" : 				{
					"destination" : [ "obj-30", 1 ],
					"order" : 0,
					"source" : [ "obj-11", 0 ]
				}

			}
, 			{
				"patchline" : 				{
					"destination" : [ "obj-109", 0 ],
					"source" : [ "obj-110", 0 ]
				}

			}
, 			{
				"patchline" : 				{
					"destination" : [ "obj-15", 0 ],
					"order" : 1,
					"source" : [ "obj-12", 0 ]
				}

			}
, 			{
				"patchline" : 				{
					"destination" : [ "obj-30", 0 ],
					"midpoints" : [ 785.902588543891966, 94.0, 882.0, 94.0, 882.0, 64.0, 900.5, 64.0 ],
					"order" : 0,
					"source" : [ "obj-12", 0 ]
				}

			}
, 			{
				"patchline" : 				{
					"destination" : [ "obj-18", 0 ],
					"source" : [ "obj-121", 1 ]
				}

			}
, 			{
				"patchline" : 				{
					"destination" : [ "obj-121", 0 ],
					"order" : 0,
					"source" : [ "obj-131", 0 ]
				}

			}
, 			{
				"patchline" : 				{
					"destination" : [ "obj-54", 0 ],
					"order" : 1,
					"source" : [ "obj-131", 0 ]
				}

			}
, 			{
				"patchline" : 				{
					"destination" : [ "obj-14", 1 ],
					"order" : 0,
					"source" : [ "obj-16", 0 ]
				}

			}
, 			{
				"patchline" : 				{
					"destination" : [ "obj-14", 0 ],
					"order" : 1,
					"source" : [ "obj-16", 0 ]
				}

			}
, 			{
				"patchline" : 				{
					"destination" : [ "obj-103", 0 ],
					"midpoints" : [ 978.101475532054792, 408.0, 888.0, 408.0, 888.0, 375.0, 770.749997496604919, 375.0 ],
					"source" : [ "obj-18", 0 ]
				}

			}
, 			{
				"patchline" : 				{
					"destination" : [ "obj-5", 0 ],
					"order" : 1,
					"source" : [ "obj-19", 0 ]
				}

			}
, 			{
				"patchline" : 				{
					"destination" : [ "obj-87", 0 ],
					"order" : 0,
					"source" : [ "obj-19", 0 ]
				}

			}
, 			{
				"patchline" : 				{
					"destination" : [ "obj-46", 1 ],
					"source" : [ "obj-2", 1 ]
				}

			}
, 			{
				"patchline" : 				{
					"destination" : [ "obj-46", 0 ],
					"source" : [ "obj-2", 0 ]
				}

			}
, 			{
				"patchline" : 				{
					"destination" : [ "obj-95", 0 ],
					"source" : [ "obj-24", 0 ]
				}

			}
, 			{
				"patchline" : 				{
					"destination" : [ "obj-101", 0 ],
					"order" : 1,
					"source" : [ "obj-29", 1 ]
				}

			}
, 			{
				"patchline" : 				{
					"destination" : [ "obj-101", 0 ],
					"order" : 1,
					"source" : [ "obj-29", 0 ]
				}

			}
, 			{
				"patchline" : 				{
					"destination" : [ "obj-73", 0 ],
					"order" : 0,
					"source" : [ "obj-29", 1 ]
				}

			}
, 			{
				"patchline" : 				{
					"destination" : [ "obj-73", 0 ],
					"order" : 0,
					"source" : [ "obj-29", 0 ]
				}

			}
, 			{
				"patchline" : 				{
					"destination" : [ "obj-10", 0 ],
					"source" : [ "obj-3", 1 ]
				}

			}
, 			{
				"patchline" : 				{
					"destination" : [ "obj-11", 0 ],
					"midpoints" : [ 936.5, 184.0, 876.0, 184.0, 876.0, 55.0, 925.0, 55.0 ],
					"source" : [ "obj-3", 0 ]
				}

			}
, 			{
				"patchline" : 				{
					"destination" : [ "obj-8", 0 ],
					"midpoints" : [ 957.5, 184.0, 1029.0, 184.0, 1029.0, 46.0, 978.101475532054792, 46.0 ],
					"source" : [ "obj-3", 2 ]
				}

			}
, 			{
				"patchline" : 				{
					"destination" : [ "obj-31", 0 ],
					"source" : [ "obj-30", 0 ]
				}

			}
, 			{
				"patchline" : 				{
					"destination" : [ "obj-131", 0 ],
					"source" : [ "obj-31", 0 ]
				}

			}
, 			{
				"patchline" : 				{
					"destination" : [ "obj-102", 0 ],
					"source" : [ "obj-33", 0 ]
				}

			}
, 			{
				"patchline" : 				{
					"destination" : [ "obj-39", 0 ],
					"source" : [ "obj-35", 0 ]
				}

			}
, 			{
				"patchline" : 				{
					"destination" : [ "obj-39", 0 ],
					"midpoints" : [ 125.364885926246643, 97.7931067943573, 60.067095160484314, 97.7931067943573 ],
					"source" : [ "obj-36", 0 ]
				}

			}
, 			{
				"patchline" : 				{
					"destination" : [ "obj-12", 0 ],
					"midpoints" : [ 59.567095160484314, 87.0, 153.0, 87.0, 153.0, 63.0, 785.902588543891966, 63.0 ],
					"order" : 0,
					"source" : [ "obj-37", 0 ]
				}

			}
, 			{
				"patchline" : 				{
					"destination" : [ "obj-38", 0 ],
					"order" : 1,
					"source" : [ "obj-37", 0 ]
				}

			}
, 			{
				"patchline" : 				{
					"destination" : [ "obj-39", 0 ],
					"source" : [ "obj-38", 0 ]
				}

			}
, 			{
				"patchline" : 				{
					"destination" : [ "obj-51", 0 ],
					"midpoints" : [ 60.067095160484314, 125.0, 60.067095160484314, 125.0 ],
					"order" : 1,
					"source" : [ "obj-39", 0 ]
				}

			}
, 			{
				"patchline" : 				{
					"destination" : [ "obj-9", 0 ],
					"order" : 0,
					"source" : [ "obj-39", 0 ]
				}

			}
, 			{
				"patchline" : 				{
					"destination" : [ "obj-55", 0 ],
					"midpoints" : [ 790.203707188367844, 661.349259939193644, 865.203707188367844, 661.349259939193644, 865.203707188367844, 529.349259939193644, 889.749997496604919, 529.349259939193644 ],
					"source" : [ "obj-44", 0 ]
				}

			}
, 			{
				"patchline" : 				{
					"destination" : [ "obj-44", 0 ],
					"source" : [ "obj-46", 0 ]
				}

			}
, 			{
				"patchline" : 				{
					"destination" : [ "obj-12", 1 ],
					"source" : [ "obj-52", 0 ]
				}

			}
, 			{
				"patchline" : 				{
					"destination" : [ "obj-58", 0 ],
					"source" : [ "obj-54", 1 ]
				}

			}
, 			{
				"patchline" : 				{
					"destination" : [ "obj-29", 2 ],
					"midpoints" : [ 889.749997496604919, 663.0, 1107.0, 663.0, 1107.0, 6.0, 1447.5, 6.0 ],
					"source" : [ "obj-55", 0 ]
				}

			}
, 			{
				"patchline" : 				{
					"destination" : [ "obj-54", 0 ],
					"source" : [ "obj-56", 0 ]
				}

			}
, 			{
				"patchline" : 				{
					"destination" : [ "obj-59", 0 ],
					"source" : [ "obj-58", 0 ]
				}

			}
, 			{
				"patchline" : 				{
					"destination" : [ "obj-62", 0 ],
					"midpoints" : [ 24.159680783748627, 800.0, 15.0, 800.0, 15.0, 812.0, 13.5, 812.0 ],
					"source" : [ "obj-59", 0 ]
				}

			}
, 			{
				"patchline" : 				{
					"destination" : [ "obj-61", 0 ],
					"source" : [ "obj-60", 0 ]
				}

			}
, 			{
				"patchline" : 				{
					"destination" : [ "obj-63", 0 ],
					"midpoints" : [ 54.0, 936.0, 138.0, 936.0, 138.0, 882.0, 129.0, 882.0, 129.0, 765.0, 138.0, 765.0, 138.0, 750.0, 145.927556097507477, 750.0 ],
					"source" : [ "obj-61", 0 ]
				}

			}
, 			{
				"patchline" : 				{
					"destination" : [ "obj-60", 1 ],
					"source" : [ "obj-62", 1 ]
				}

			}
, 			{
				"patchline" : 				{
					"destination" : [ "obj-60", 0 ],
					"source" : [ "obj-62", 0 ]
				}

			}
, 			{
				"patchline" : 				{
					"destination" : [ "obj-29", 2 ],
					"midpoints" : [ 145.927556097507477, 903.254260877966772, 369.213778048753738, 903.254260877966772, 369.213778048753738, 9.675637293899996, 1447.5, 9.675637293899996 ],
					"source" : [ "obj-63", 0 ]
				}

			}
, 			{
				"patchline" : 				{
					"destination" : [ "obj-71", 1 ],
					"source" : [ "obj-66", 0 ]
				}

			}
, 			{
				"patchline" : 				{
					"destination" : [ "obj-24", 0 ],
					"order" : 0,
					"source" : [ "obj-71", 0 ]
				}

			}
, 			{
				"patchline" : 				{
					"destination" : [ "obj-65", 0 ],
					"midpoints" : [ 494.5, 237.0, 438.0, 237.0, 438.0, 288.0, 471.5, 288.0 ],
					"order" : 1,
					"source" : [ "obj-71", 0 ]
				}

			}
, 			{
				"patchline" : 				{
					"destination" : [ "obj-16", 1 ],
					"source" : [ "obj-73", 0 ]
				}

			}
, 			{
				"patchline" : 				{
					"destination" : [ "obj-75", 0 ],
					"source" : [ "obj-74", 0 ]
				}

			}
, 			{
				"patchline" : 				{
					"destination" : [ "obj-103", 2 ],
					"midpoints" : [ 978.101475532054792, 84.0, 1041.0, 84.0, 1041.0, 372.0, 809.949997496604965, 372.0 ],
					"order" : 1,
					"source" : [ "obj-8", 0 ]
				}

			}
, 			{
				"patchline" : 				{
					"destination" : [ "obj-30", 2 ],
					"order" : 0,
					"source" : [ "obj-8", 0 ]
				}

			}
, 			{
				"patchline" : 				{
					"destination" : [ "obj-121", 0 ],
					"midpoints" : [ 506.432904839515686, 276.0, 750.0, 276.0, 750.0, 246.0, 774.203707188367844, 246.0 ],
					"source" : [ "obj-87", 0 ]
				}

			}
, 			{
				"patchline" : 				{
					"destination" : [ "obj-19", 0 ],
					"order" : 3,
					"source" : [ "obj-9", 0 ]
				}

			}
, 			{
				"patchline" : 				{
					"destination" : [ "obj-3", 0 ],
					"midpoints" : [ 460.5, 105.0, 876.0, 105.0, 876.0, 132.0, 924.0, 132.0, 924.0, 126.0, 936.5, 126.0 ],
					"order" : 0,
					"source" : [ "obj-9", 0 ]
				}

			}
, 			{
				"patchline" : 				{
					"destination" : [ "obj-71", 0 ],
					"order" : 2,
					"source" : [ "obj-9", 0 ]
				}

			}
, 			{
				"patchline" : 				{
					"destination" : [ "obj-98", 0 ],
					"order" : 1,
					"source" : [ "obj-9", 0 ]
				}

			}
, 			{
				"patchline" : 				{
					"destination" : [ "obj-100", 0 ],
					"source" : [ "obj-95", 0 ]
				}

			}
, 			{
				"patchline" : 				{
					"destination" : [ "obj-4", 0 ],
					"order" : 0,
					"source" : [ "obj-98", 0 ]
				}

			}
, 			{
				"patchline" : 				{
					"destination" : [ "obj-56", 0 ],
					"order" : 1,
					"source" : [ "obj-98", 0 ]
				}

			}
 ],
		"parameters" : 		{
			"obj-101::obj-11" : [ "Resonance", "Res", 0 ],
			"obj-101::obj-26" : [ "spectral", "spectral", 0 ],
			"obj-101::obj-51" : [ "CV2", "CV2", 0 ],
			"obj-101::obj-54" : [ "CV1", "CV1", 0 ],
			"obj-101::obj-55" : [ "power", "power", 0 ],
			"obj-101::obj-59" : [ "filter_mode", "filter_mode", 0 ],
			"obj-101::obj-63" : [ "CV3", "CV3", 0 ],
			"obj-101::obj-95" : [ "Freq", "Freq", 0 ],
			"obj-101::obj-98" : [ "Gain", "Gain", 0 ],
			"obj-14::obj-22" : [ "Mute", "Mute", 0 ],
			"obj-14::obj-52" : [ "Level", "Level", 0 ],
			"obj-14::obj-55" : [ "DSP", "DSP", 0 ],
			"obj-14::obj-56" : [ "OutputChannel", "OutputChannel", 0 ],
			"obj-16::obj-29" : [ "3", "3", 0 ],
			"obj-16::obj-32" : [ "2", "2", 0 ],
			"obj-16::obj-33" : [ "4", "4", 0 ],
			"obj-16::obj-37" : [ "Mute[3]", "Mute", 0 ],
			"obj-16::obj-39" : [ "1", "1", 0 ],
			"obj-16::obj-49" : [ "MuteCh1", "MuteCh1", 0 ],
			"obj-16::obj-58" : [ "MuteCh2", "MuteCh2", 0 ],
			"obj-16::obj-64" : [ "MuteCh3", "MuteCh3", 0 ],
			"obj-16::obj-70" : [ "MuteCh4", "MuteCh4", 0 ],
			"obj-29" : [ "amxd~[1]", "amxd~[1]", 0 ],
			"obj-55::obj-100" : [ "score", "score", 0 ],
			"obj-55::obj-10::obj-2" : [ "pastebang", "pastebang", 0 ],
			"obj-55::obj-12" : [ "bypass[1]", "bypass", 0 ],
			"obj-55::obj-29" : [ "OutputLED[1]", "OutputLED", 0 ],
			"obj-55::obj-48" : [ "InputLED[1]", "InputLED", 0 ],
			"obj-55::obj-92" : [ "kslider", "kslider", 0 ],
			"obj-63::obj-100" : [ "score[1]", "score", 0 ],
			"obj-63::obj-10::obj-2" : [ "pastebang[1]", "pastebang", 0 ],
			"obj-63::obj-12" : [ "bypass", "bypass", 0 ],
			"obj-63::obj-29" : [ "OutputLED", "OutputLED", 0 ],
			"obj-63::obj-48" : [ "InputLED", "InputLED", 0 ],
			"obj-63::obj-92" : [ "kslider[1]", "kslider", 0 ],
			"obj-73::obj-11" : [ "Resonance[1]", "Res", 0 ],
			"obj-73::obj-26" : [ "spectral[1]", "spectral", 0 ],
			"obj-73::obj-51" : [ "CV2[1]", "CV2", 0 ],
			"obj-73::obj-54" : [ "CV1[1]", "CV1", 0 ],
			"obj-73::obj-55" : [ "power[1]", "power", 0 ],
			"obj-73::obj-59" : [ "filter_mode[1]", "filter_mode", 0 ],
			"obj-73::obj-63" : [ "CV3[1]", "CV3", 0 ],
			"obj-73::obj-95" : [ "Freq[1]", "Freq", 0 ],
			"obj-73::obj-98" : [ "Gain[1]", "Gain", 0 ],
			"parameterbanks" : 			{

			}
,
			"parameter_overrides" : 			{
				"obj-16::obj-37" : 				{
					"parameter_longname" : "Mute[3]"
				}
,
				"obj-55::obj-12" : 				{
					"parameter_longname" : "bypass[1]"
				}
,
				"obj-55::obj-29" : 				{
					"parameter_longname" : "OutputLED[1]"
				}
,
				"obj-55::obj-48" : 				{
					"parameter_longname" : "InputLED[1]"
				}
,
				"obj-63::obj-100" : 				{
					"parameter_longname" : "score[1]"
				}
,
				"obj-63::obj-10::obj-2" : 				{
					"parameter_longname" : "pastebang[1]"
				}
,
				"obj-73::obj-11" : 				{
					"parameter_longname" : "Resonance[1]"
				}
,
				"obj-73::obj-26" : 				{
					"parameter_longname" : "spectral[1]"
				}
,
				"obj-73::obj-51" : 				{
					"parameter_longname" : "CV2[1]"
				}
,
				"obj-73::obj-54" : 				{
					"parameter_longname" : "CV1[1]"
				}
,
				"obj-73::obj-55" : 				{
					"parameter_longname" : "power[1]"
				}
,
				"obj-73::obj-59" : 				{
					"parameter_longname" : "filter_mode[1]"
				}
,
				"obj-73::obj-63" : 				{
					"parameter_longname" : "CV3[1]"
				}
,
				"obj-73::obj-95" : 				{
					"parameter_longname" : "Freq[1]"
				}
,
				"obj-73::obj-98" : 				{
					"parameter_longname" : "Gain[1]"
				}

			}
,
			"inherited_shortname" : 1
		}
,
		"dependency_cache" : [ 			{
				"name" : "Additive Heaven.amxd.maxsnap",
				"bootpath" : "~/Documents/Max 8/Snapshots",
				"patcherrelativepath" : "../../Documents/Max 8/Snapshots",
				"type" : "mx@s",
				"implicit" : 1
			}
, 			{
				"name" : "Additive Heaven.amxd",
				"bootpath" : "C74:/packages/Max for Live/patchers/Max Instrument/Additive Heaven",
				"type" : "amxd",
				"implicit" : 1
			}
, 			{
				"name" : "bp.Quantizer-MIDI.maxpat",
				"bootpath" : "C74:/packages/BEAP/clippings/BEAP/MIDI",
				"type" : "JSON",
				"implicit" : 1
			}
, 			{
				"name" : "pastebang.maxpat",
				"bootpath" : "C74:/packages/BEAP/misc",
				"type" : "JSON",
				"implicit" : 1
			}
, 			{
				"name" : "bp.Classroom Filter.maxpat",
				"bootpath" : "C74:/packages/BEAP/clippings/BEAP/Filter",
				"type" : "JSON",
				"implicit" : 1
			}
, 			{
				"name" : "bp.Stereo.maxpat",
				"bootpath" : "C74:/packages/BEAP/clippings/BEAP/Output",
				"type" : "JSON",
				"implicit" : 1
			}
, 			{
				"name" : "bp.Audio Mixer.maxpat",
				"bootpath" : "C74:/packages/BEAP/clippings/BEAP/Mixers",
				"type" : "JSON",
				"implicit" : 1
			}
, 			{
				"name" : "cv.jit.resize.mxo",
				"type" : "iLaX"
			}
, 			{
				"name" : "cv.jit.moments.mxo",
				"type" : "iLaX"
			}
 ],
		"autosave" : 0
	}

}
