{
	"patcher" : 	{
		"fileversion" : 1,
		"appversion" : 		{
			"major" : 8,
			"minor" : 1,
			"revision" : 10,
			"architecture" : "x64",
			"modernui" : 1
		}
,
		"classnamespace" : "box",
		"rect" : [ 0.0, -26.0, 640.0, 506.0 ],
		"bglocked" : 0,
		"openinpresentation" : 0,
		"default_fontsize" : 12.0,
		"default_fontface" : 0,
		"default_fontname" : "Arial",
		"gridonopen" : 1,
		"gridsize" : [ 15.0, 15.0 ],
		"gridsnaponopen" : 1,
		"objectsnaponopen" : 1,
		"statusbarvisible" : 2,
		"toolbarvisible" : 1,
		"lefttoolbarpinned" : 0,
		"toptoolbarpinned" : 0,
		"righttoolbarpinned" : 0,
		"bottomtoolbarpinned" : 0,
		"toolbars_unpinned_last_save" : 0,
		"tallnewobj" : 0,
		"boxanimatetime" : 200,
		"enablehscroll" : 1,
		"enablevscroll" : 1,
		"devicewidth" : 0.0,
		"description" : "",
		"digest" : "",
		"tags" : "",
		"style" : "",
		"subpatcher_template" : "",
		"assistshowspatchername" : 0,
		"boxes" : [ 			{
				"box" : 				{
					"id" : "obj-23",
					"maxclass" : "newobj",
					"numinlets" : 3,
					"numoutlets" : 2,
					"outlettype" : [ "signal", "bang" ],
					"patching_rect" : [ 1057.0, 139.638871371746063, 138.0, 22.0 ],
					"text" : "curve~ @maxpoints 240"
				}

			}
, 			{
				"box" : 				{
					"id" : "obj-17",
					"maxclass" : "scope~",
					"numinlets" : 2,
					"numoutlets" : 0,
					"patching_rect" : [ 1262.0, 95.0, 264.0, 81.0 ]
				}

			}
, 			{
				"box" : 				{
					"id" : "obj-16",
					"maxclass" : "ezdac~",
					"numinlets" : 2,
					"numoutlets" : 0,
					"patching_rect" : [ 1167.0, 833.0, 45.0, 45.0 ]
				}

			}
, 			{
				"box" : 				{
					"fontface" : 0,
					"fontname" : "Arial",
					"fontsize" : 13.0,
					"id" : "obj-14",
					"maxclass" : "number~",
					"mode" : 2,
					"numinlets" : 2,
					"numoutlets" : 2,
					"outlettype" : [ "signal", "float" ],
					"patching_rect" : [ 1043.0, 214.616399461633705, 56.0, 23.0 ],
					"sig" : 0.0
				}

			}
, 			{
				"box" : 				{
					"id" : "obj-13",
					"maxclass" : "newobj",
					"numinlets" : 2,
					"numoutlets" : 2,
					"outlettype" : [ "signal", "bang" ],
					"patching_rect" : [ 1043.0, 268.0, 128.0, 22.0 ],
					"text" : "line~ @maxpoints 240"
				}

			}
, 			{
				"box" : 				{
					"id" : "obj-11",
					"maxclass" : "spectroscope~",
					"numinlets" : 2,
					"numoutlets" : 1,
					"outlettype" : [ "" ],
					"patching_rect" : [ 1262.0, 211.116399461633705, 300.0, 100.0 ]
				}

			}
, 			{
				"box" : 				{
					"fontname" : "Arial",
					"fontsize" : 9.0,
					"id" : "obj-7",
					"maxclass" : "comment",
					"numinlets" : 1,
					"numoutlets" : 0,
					"patching_rect" : [ 394.567095160484314, 322.7931067943573, 199.432904839515686, 17.0 ],
					"text" : "Swap matrix resize method for diff experience"
				}

			}
, 			{
				"box" : 				{
					"bgmode" : 0,
					"border" : 0,
					"clickthrough" : 0,
					"enablehscroll" : 0,
					"enablevscroll" : 0,
					"extract" : 1,
					"id" : "obj-55",
					"lockeddragscroll" : 0,
					"maxclass" : "bpatcher",
					"name" : "bp.Quantizer-MIDI.maxpat",
					"numinlets" : 1,
					"numoutlets" : 1,
					"offset" : [ 0.0, 0.0 ],
					"outlettype" : [ "int" ],
					"patching_rect" : [ 1050.5, 700.925918817520142, 217.0, 117.0 ],
					"varname" : "bp.Quantizer-MIDI[1]",
					"viewvisibility" : 1
				}

			}
, 			{
				"box" : 				{
					"autosave" : 1,
					"bgmode" : 1,
					"border" : 0,
					"clickthrough" : 0,
					"enablehscroll" : 0,
					"enablevscroll" : 0,
					"id" : "obj-29",
					"linecount" : 2,
					"lockeddragscroll" : 0,
					"maxclass" : "newobj",
					"numinlets" : 3,
					"numoutlets" : 4,
					"offset" : [ 0.0, 0.0 ],
					"outlettype" : [ "signal", "signal", "", "" ],
					"patching_rect" : [ 1233.0, 490.409997913837287, 343.0, 196.0 ],
					"presentation_linecount" : 2,
					"saved_attribute_attributes" : 					{
						"valueof" : 						{
							"parameter_invisible" : 1,
							"parameter_longname" : "amxd~[1]",
							"parameter_shortname" : "amxd~[1]",
							"parameter_type" : 3
						}

					}
,
					"saved_object_attributes" : 					{
						"parameter_enable" : 1,
						"patchername" : "Additive Heaven.amxd",
						"patchername_fallback" : "C74:/packages/Max for Live/patchers/Max Instrument/Additive Heaven/Additive Heaven.amxd"
					}
,
					"snapshot" : 					{
						"filetype" : "C74Snapshot",
						"version" : 2,
						"minorversion" : 0,
						"name" : "snapshotlist",
						"origin" : "max~",
						"type" : "list",
						"subtype" : "Undefined",
						"embed" : 1,
						"snapshot" : 						{
							"name" : "Additive Heaven.amxd",
							"origname" : "C74:/packages/Max for Live/patchers/Max Instrument/Additive Heaven/Additive Heaven.amxd",
							"valuedictionary" : 							{
								"parameter_values" : 								{
									"attack" : 0.0,
									"decay" : 50.0,
									"env_curve" : 0.1,
									"harm_num_2" : 12.0,
									"harm_num_3" : 39.0,
									"harm_num_4" : 8.0,
									"harm_num_5" : 25.0,
									"harm_num_6" : 102.0,
									"harm_num_7" : 103.0,
									"harm_num_8" : 39.0,
									"harm_val_2" : 0.98,
									"harm_val_3" : 3.0,
									"harm_val_4" : 0.66,
									"harm_val_5" : 1.98,
									"harm_val_6" : 8.0,
									"harm_val_7" : 8.02,
									"harm_val_8" : 3.0,
									"harmonic_2" : 12.0,
									"harmonic_3" : 39.0,
									"harmonic_4" : 8.0,
									"harmonic_5" : 25.0,
									"harmonic_6" : 102.0,
									"harmonic_7" : 103.0,
									"harmonic_8" : 39.0,
									"level" : -49.902137232845867,
									"pan_1" : 33.0,
									"pan_2" : -16.0,
									"pan_3" : -8.0,
									"pan_4" : 4.0,
									"pan_5" : -21.0,
									"pan_6" : 19.0,
									"pan_7" : -51.0,
									"pan_8" : 56.0,
									"polyphony" : 16.0,
									"release" : 85.0,
									"sustain" : 87.0,
									"vol_harm" : 0.0,
									"vol_num_1" : 127.0,
									"vol_num_2" : 46.0,
									"vol_num_3" : 28.0,
									"vol_num_4" : 30.0,
									"vol_num_5" : 55.0,
									"vol_num_6" : 62.0,
									"vol_num_7" : 30.0,
									"vol_num_8" : 42.0,
									"volume_1" : 127.0,
									"volume_2" : 46.0,
									"volume_3" : 28.0,
									"volume_4" : 30.0,
									"volume_5" : 55.0,
									"volume_6" : 62.0,
									"volume_7" : 30.0,
									"volume_8" : 42.0
								}

							}

						}
,
						"snapshotlist" : 						{
							"current_snapshot" : 0,
							"entries" : [ 								{
									"filetype" : "C74Snapshot",
									"version" : 2,
									"minorversion" : 0,
									"name" : "Additive Heaven.amxd",
									"origin" : "Additive Heaven.amxd",
									"type" : "amxd",
									"subtype" : "Undefined",
									"embed" : 0,
									"snapshot" : 									{
										"name" : "Additive Heaven.amxd",
										"origname" : "C74:/packages/Max for Live/patchers/Max Instrument/Additive Heaven/Additive Heaven.amxd",
										"valuedictionary" : 										{
											"parameter_values" : 											{
												"attack" : 0.0,
												"decay" : 50.0,
												"env_curve" : 0.1,
												"harm_num_2" : 12.0,
												"harm_num_3" : 39.0,
												"harm_num_4" : 8.0,
												"harm_num_5" : 25.0,
												"harm_num_6" : 102.0,
												"harm_num_7" : 103.0,
												"harm_num_8" : 39.0,
												"harm_val_2" : 0.98,
												"harm_val_3" : 3.0,
												"harm_val_4" : 0.66,
												"harm_val_5" : 1.98,
												"harm_val_6" : 8.0,
												"harm_val_7" : 8.02,
												"harm_val_8" : 3.0,
												"harmonic_2" : 12.0,
												"harmonic_3" : 39.0,
												"harmonic_4" : 8.0,
												"harmonic_5" : 25.0,
												"harmonic_6" : 102.0,
												"harmonic_7" : 103.0,
												"harmonic_8" : 39.0,
												"level" : -49.902137232845867,
												"pan_1" : 33.0,
												"pan_2" : -16.0,
												"pan_3" : -8.0,
												"pan_4" : 4.0,
												"pan_5" : -21.0,
												"pan_6" : 19.0,
												"pan_7" : -51.0,
												"pan_8" : 56.0,
												"polyphony" : 16.0,
												"release" : 85.0,
												"sustain" : 87.0,
												"vol_harm" : 0.0,
												"vol_num_1" : 127.0,
												"vol_num_2" : 46.0,
												"vol_num_3" : 28.0,
												"vol_num_4" : 30.0,
												"vol_num_5" : 55.0,
												"vol_num_6" : 62.0,
												"vol_num_7" : 30.0,
												"vol_num_8" : 42.0,
												"volume_1" : 127.0,
												"volume_2" : 46.0,
												"volume_3" : 28.0,
												"volume_4" : 30.0,
												"volume_5" : 55.0,
												"volume_6" : 62.0,
												"volume_7" : 30.0,
												"volume_8" : 42.0
											}

										}

									}
,
									"fileref" : 									{
										"name" : "Additive Heaven.amxd",
										"filename" : "Additive Heaven.amxd.maxsnap",
										"filepath" : "~/Documents/Max 8/Snapshots",
										"filepos" : -1,
										"snapshotfileid" : "3ac2360d22b43979d69363933c57cf7d"
									}

								}
, 								{
									"filetype" : "C74Snapshot",
									"version" : 2,
									"minorversion" : 0,
									"name" : "Additive Heaven.amxd",
									"origin" : "Additive Heaven.amxd",
									"type" : "amxd",
									"subtype" : "Undefined",
									"embed" : 0,
									"fileref" : 									{
										"name" : "Additive Heaven.amxd",
										"filename" : "Additive Heaven.amxd.maxsnap",
										"filepath" : "~/Documents/Max 8/Snapshots",
										"filepos" : -1,
										"snapshotfileid" : "3ac2360d22b43979d69363933c57cf7d"
									}

								}
, 								{
									"filetype" : "C74Snapshot",
									"version" : 2,
									"minorversion" : 0,
									"name" : "Additive Heaven.amxd",
									"origin" : "Additive Heaven.amxd",
									"type" : "amxd",
									"subtype" : "Undefined",
									"embed" : 0,
									"fileref" : 									{
										"name" : "Additive Heaven.amxd",
										"filename" : "Additive Heaven.amxd_20210313.maxsnap",
										"filepath" : "~/Documents/Max 8/Snapshots",
										"filepos" : -1,
										"snapshotfileid" : "7512e64e7bdefea560b920ccb56a2e25"
									}

								}
 ]
						}

					}
,
					"text" : "amxd~ \"C74:/packages/Max for Live/patchers/Max Instrument/Additive Heaven/Additive Heaven.amxd\"",
					"varname" : "amxd~[1]",
					"viewvisibility" : 1
				}

			}
, 			{
				"box" : 				{
					"id" : "obj-46",
					"maxclass" : "newobj",
					"numinlets" : 2,
					"numoutlets" : 1,
					"outlettype" : [ "" ],
					"patching_rect" : [ 819.5, 894.0, 34.0, 22.0 ],
					"text" : "pack"
				}

			}
, 			{
				"box" : 				{
					"id" : "obj-44",
					"maxclass" : "newobj",
					"numinlets" : 7,
					"numoutlets" : 2,
					"outlettype" : [ "int", "" ],
					"patching_rect" : [ 819.5, 938.0, 82.0, 22.0 ],
					"text" : "midiformat"
				}

			}
, 			{
				"box" : 				{
					"id" : "obj-33",
					"maxclass" : "number",
					"numinlets" : 1,
					"numoutlets" : 2,
					"outlettype" : [ "", "bang" ],
					"parameter_enable" : 0,
					"patching_rect" : [ 597.0, 856.0, 150.0, 22.0 ]
				}

			}
, 			{
				"box" : 				{
					"id" : "obj-31",
					"maxclass" : "number",
					"numinlets" : 1,
					"numoutlets" : 2,
					"outlettype" : [ "", "bang" ],
					"parameter_enable" : 0,
					"patching_rect" : [ 774.749997496605033, 166.0, 50.0, 22.0 ]
				}

			}
, 			{
				"box" : 				{
					"id" : "obj-30",
					"maxclass" : "newobj",
					"numinlets" : 1,
					"numoutlets" : 1,
					"outlettype" : [ "" ],
					"patching_rect" : [ 896.0, 87.7931067943573, 114.0, 22.0 ],
					"text" : "expr random(0\\,240)"
				}

			}
, 			{
				"box" : 				{
					"fontname" : "Arial",
					"fontsize" : 9.0,
					"id" : "obj-9",
					"maxclass" : "newobj",
					"numinlets" : 1,
					"numoutlets" : 2,
					"outlettype" : [ "jit_matrix", "" ],
					"patching_rect" : [ 378.0, 251.616399461633705, 66.0, 19.0 ],
					"text" : "jit.rgb2luma"
				}

			}
, 			{
				"box" : 				{
					"fontname" : "Arial",
					"fontsize" : 9.0,
					"id" : "obj-19",
					"maxclass" : "newobj",
					"numinlets" : 1,
					"numoutlets" : 2,
					"outlettype" : [ "jit_matrix", "" ],
					"patching_rect" : [ 378.0, 292.63164684176445, 105.0, 19.0 ],
					"text" : "cv.jit.resize @size 240 1"
				}

			}
, 			{
				"box" : 				{
					"fontname" : "Arial",
					"fontsize" : 9.0,
					"id" : "obj-98",
					"maxclass" : "newobj",
					"numinlets" : 1,
					"numoutlets" : 2,
					"outlettype" : [ "jit_matrix", "" ],
					"patching_rect" : [ 499.0, 292.63164684176445, 95.0, 19.0 ],
					"text" : "jit.matrix 4 char 240 1"
				}

			}
, 			{
				"box" : 				{
					"id" : "obj-18",
					"maxclass" : "number",
					"numinlets" : 1,
					"numoutlets" : 2,
					"outlettype" : [ "", "bang" ],
					"parameter_enable" : 0,
					"patching_rect" : [ 1193.397768343686948, 550.0, 50.0, 22.0 ]
				}

			}
, 			{
				"box" : 				{
					"id" : "obj-15",
					"maxclass" : "button",
					"numinlets" : 1,
					"numoutlets" : 1,
					"outlettype" : [ "bang" ],
					"parameter_enable" : 0,
					"patching_rect" : [ 776.402588543891966, 125.7931067943573, 24.0, 24.0 ]
				}

			}
, 			{
				"box" : 				{
					"id" : "obj-12",
					"maxclass" : "newobj",
					"numinlets" : 2,
					"numoutlets" : 1,
					"outlettype" : [ "bang" ],
					"patching_rect" : [ 776.402588543891966, 87.7931067943573, 76.0, 22.0 ],
					"text" : "qmetro 1000"
				}

			}
, 			{
				"box" : 				{
					"id" : "obj-10",
					"maxclass" : "number",
					"numinlets" : 1,
					"numoutlets" : 2,
					"outlettype" : [ "", "bang" ],
					"parameter_enable" : 0,
					"patching_rect" : [ 937.5, 672.0, 50.0, 22.0 ]
				}

			}
, 			{
				"box" : 				{
					"id" : "obj-3",
					"maxclass" : "newobj",
					"numinlets" : 1,
					"numoutlets" : 4,
					"outlettype" : [ "", "", "", "" ],
					"patching_rect" : [ 927.0, 639.0, 50.5, 22.0 ],
					"text" : "jit.3m"
				}

			}
, 			{
				"box" : 				{
					"id" : "obj-2",
					"maxclass" : "newobj",
					"numinlets" : 3,
					"numoutlets" : 2,
					"outlettype" : [ "float", "float" ],
					"patching_rect" : [ 779.0, 853.0, 115.0, 22.0 ],
					"text" : "makenote 100 1000"
				}

			}
, 			{
				"box" : 				{
					"id" : "obj-131",
					"maxclass" : "message",
					"numinlets" : 2,
					"numoutlets" : 1,
					"outlettype" : [ "" ],
					"patching_rect" : [ 774.749997496605033, 204.819435685873032, 51.0, 22.0 ],
					"text" : "fetch $1"
				}

			}
, 			{
				"box" : 				{
					"id" : "obj-103",
					"maxclass" : "newobj",
					"numinlets" : 6,
					"numoutlets" : 1,
					"outlettype" : [ "" ],
					"patching_rect" : [ 735.249997496604919, 675.608908534049988, 117.0, 22.0 ],
					"text" : "scale 60 170 30 120"
				}

			}
, 			{
				"box" : 				{
					"id" : "obj-102",
					"maxclass" : "kslider",
					"numinlets" : 2,
					"numoutlets" : 2,
					"outlettype" : [ "int", "int" ],
					"parameter_enable" : 0,
					"patching_rect" : [ 735.249997496604919, 716.925918817520142, 336.0, 53.0 ]
				}

			}
, 			{
				"box" : 				{
					"id" : "obj-90",
					"linecount" : 13,
					"maxclass" : "message",
					"numinlets" : 2,
					"numoutlets" : 1,
					"outlettype" : [ "" ],
					"patching_rect" : [ 378.0, 525.409997913837401, 329.0, 183.0 ],
					"text" : "23 23 22 21 20 19 18 18 18 17 16 16 17 17 18 19 18 18 18 18 18 18 18 18 18 18 18 17 17 18 17 17 17 17 17 17 17 17 17 18 18 18 19 18 18 18 17 18 18 17 17 18 18 18 18 18 18 18 18 17 17 18 18 18 19 19 19 19 20 20 19 19 19 18 18 18 18 19 19 19 19 19 19 19 19 19 19 19 19 18 19 19 19 19 19 19 19 19 18 18 18 18 19 18 18 18 18 17 18 18 18 18 18 18 18 18 18 18 18 18 18 19 20 20 22 23 24 25 26 25 25 26 28 28 27 27 29 31 31 32 33 32 31 30 30 29 29 30 31 32 32 32 32 31 27 24 24 25 25 24 25 25 26 26 25 25 25 24 24 23 23 22 22 21 21 21 21 21 21 22 21 22 21 22 22 22 22 22 22 22 23 22 22 22 22 22 23 23 23 23 23 23 23 23 23 23 23 24 24 24 24 24 24 24 24 24 25 24 24 24 24 25 25 25 25 25 25 25 25 25 26 26 26 26 26 26 26 26 27 26"
				}

			}
, 			{
				"box" : 				{
					"id" : "obj-89",
					"maxclass" : "newobj",
					"numinlets" : 1,
					"numoutlets" : 1,
					"outlettype" : [ "" ],
					"patching_rect" : [ 378.0, 478.409997913837401, 72.0, 22.0 ],
					"text" : "prepend set"
				}

			}
, 			{
				"box" : 				{
					"id" : "obj-87",
					"maxclass" : "newobj",
					"numinlets" : 1,
					"numoutlets" : 2,
					"outlettype" : [ "", "" ],
					"patching_rect" : [ 378.0, 438.150740060806243, 182.0, 22.0 ],
					"text" : "jit.spill @listlength 240 @plane 1"
				}

			}
, 			{
				"box" : 				{
					"id" : "obj-121",
					"maxclass" : "multislider",
					"numinlets" : 1,
					"numoutlets" : 2,
					"outlettype" : [ "", "" ],
					"parameter_enable" : 0,
					"patching_rect" : [ 774.805182720422749, 332.2546256929636, 437.592585623264313, 179.999635185003285 ],
					"setminmax" : [ 50.0, 170.0 ],
					"settype" : 0,
					"size" : 240
				}

			}
, 			{
				"box" : 				{
					"fontname" : "Arial",
					"fontsize" : 9.0,
					"id" : "obj-1",
					"maxclass" : "message",
					"numinlets" : 2,
					"numoutlets" : 1,
					"outlettype" : [ "" ],
					"patching_rect" : [ 293.567089796066284, 94.7931067943573, 56.0, 19.0 ],
					"text" : "@vdevice 0"
				}

			}
, 			{
				"box" : 				{
					"id" : "obj-4",
					"maxclass" : "jit.pwindow",
					"numinlets" : 1,
					"numoutlets" : 2,
					"outlettype" : [ "jit_matrix", "" ],
					"patching_rect" : [ 217.300514757633209, 471.366396967172591, 64.488370180130005, 250.302325248718262 ]
				}

			}
, 			{
				"box" : 				{
					"id" : "obj-5",
					"maxclass" : "jit.pwindow",
					"numinlets" : 1,
					"numoutlets" : 2,
					"outlettype" : [ "jit_matrix", "" ],
					"patching_rect" : [ 111.812141895294189, 471.366396967172591, 77.279067397117615, 250.302325248718262 ]
				}

			}
, 			{
				"box" : 				{
					"angle" : 270.0,
					"bgcolor" : [ 0.823529, 0.823529, 0.764706, 1.0 ],
					"border" : 1,
					"bordercolor" : [ 1.0, 1.0, 1.0, 1.0 ],
					"id" : "obj-57",
					"maxclass" : "panel",
					"mode" : 0,
					"numinlets" : 1,
					"numoutlets" : 0,
					"patching_rect" : [ 79.626959264278412, 455.78930843234059, 226.880271792411804, 281.241378962993622 ],
					"proportion" : 0.39,
					"rounded" : 0
				}

			}
, 			{
				"box" : 				{
					"fontname" : "Arial",
					"fontsize" : 9.0,
					"id" : "obj-35",
					"maxclass" : "message",
					"numinlets" : 2,
					"numoutlets" : 1,
					"outlettype" : [ "" ],
					"patching_rect" : [ 248.427556097507477, 94.7931067943573, 31.0, 19.0 ],
					"text" : "close"
				}

			}
, 			{
				"box" : 				{
					"id" : "obj-51",
					"maxclass" : "jit.pwindow",
					"numinlets" : 1,
					"numoutlets" : 2,
					"outlettype" : [ "jit_matrix", "" ],
					"patching_rect" : [ 134.567095160484314, 174.749266788363457, 211.197617173194885, 148.14033779501915 ]
				}

			}
, 			{
				"box" : 				{
					"fontname" : "Arial",
					"fontsize" : 9.0,
					"id" : "obj-28",
					"maxclass" : "comment",
					"numinlets" : 1,
					"numoutlets" : 0,
					"patching_rect" : [ 156.567095160484314, 71.7931067943573, 105.0, 17.0 ],
					"text" : "Use live camera input"
				}

			}
, 			{
				"box" : 				{
					"fontname" : "Arial",
					"fontsize" : 9.0,
					"id" : "obj-36",
					"maxclass" : "message",
					"numinlets" : 2,
					"numoutlets" : 1,
					"outlettype" : [ "" ],
					"patching_rect" : [ 199.864885926246643, 94.7931067943573, 30.0, 19.0 ],
					"text" : "open"
				}

			}
, 			{
				"box" : 				{
					"id" : "obj-37",
					"maxclass" : "toggle",
					"numinlets" : 1,
					"numoutlets" : 1,
					"outlettype" : [ "int" ],
					"parameter_enable" : 0,
					"patching_rect" : [ 134.567095160484314, 70.7931067943573, 15.0, 15.0 ]
				}

			}
, 			{
				"box" : 				{
					"fontface" : 0,
					"fontname" : "Arial",
					"fontsize" : 9.0,
					"id" : "obj-38",
					"maxclass" : "newobj",
					"numinlets" : 2,
					"numoutlets" : 1,
					"outlettype" : [ "bang" ],
					"patching_rect" : [ 134.067095160484314, 94.7931067943573, 54.0, 19.0 ],
					"text" : "qmetro 100"
				}

			}
, 			{
				"box" : 				{
					"fontname" : "Arial",
					"fontsize" : 9.0,
					"id" : "obj-39",
					"maxclass" : "newobj",
					"numinlets" : 1,
					"numoutlets" : 2,
					"outlettype" : [ "jit_matrix", "" ],
					"patching_rect" : [ 134.567095160484314, 124.7931067943573, 117.0, 19.0 ],
					"text" : "jit.grab 640 480 @unique 1"
				}

			}
, 			{
				"box" : 				{
					"angle" : 270.0,
					"bgcolor" : [ 0.54902, 0.54902, 0.54902, 1.0 ],
					"id" : "obj-42",
					"maxclass" : "panel",
					"mode" : 0,
					"numinlets" : 1,
					"numoutlets" : 0,
					"patching_rect" : [ 119.567095160484314, 48.7931067943573, 274.0, 104.2068932056427 ],
					"proportion" : 0.39,
					"rounded" : 0
				}

			}
, 			{
				"box" : 				{
					"angle" : 270.0,
					"bgcolor" : [ 0.54902, 0.54902, 0.54902, 1.0 ],
					"id" : "obj-53",
					"maxclass" : "panel",
					"mode" : 0,
					"numinlets" : 1,
					"numoutlets" : 0,
					"patching_rect" : [ 120.864885926246643, 164.0, 238.702209234237671, 169.638871371746063 ],
					"proportion" : 0.39,
					"rounded" : 0
				}

			}
, 			{
				"box" : 				{
					"fontname" : "Arial",
					"fontsize" : 9.0,
					"id" : "obj-20",
					"maxclass" : "newobj",
					"numinlets" : 1,
					"numoutlets" : 2,
					"outlettype" : [ "jit_matrix", "" ],
					"patching_rect" : [ 145.567095160484314, 370.624422311782837, 95.0, 19.0 ],
					"text" : "jit.matrix 4 char 240 1"
				}

			}
, 			{
				"box" : 				{
					"fontname" : "Arial",
					"fontsize" : 9.0,
					"id" : "obj-21",
					"maxclass" : "newobj",
					"numinlets" : 1,
					"numoutlets" : 2,
					"outlettype" : [ "jit_matrix", "" ],
					"patching_rect" : [ 25.567089796066284, 370.624422311782837, 105.0, 19.0 ],
					"text" : "cv.jit.resize @size 240 1"
				}

			}
, 			{
				"box" : 				{
					"angle" : 270.0,
					"bgcolor" : [ 0.968627, 0.972549, 0.972549, 1.0 ],
					"border" : 1,
					"bordercolor" : [ 0.584314, 0.215686, 0.215686, 1.0 ],
					"id" : "obj-40",
					"maxclass" : "panel",
					"mode" : 0,
					"numinlets" : 1,
					"numoutlets" : 0,
					"patching_rect" : [ 370.0, 244.638871371746063, 238.0, 114.985550940036774 ],
					"proportion" : 0.39,
					"rounded" : 0
				}

			}
, 			{
				"box" : 				{
					"angle" : 270.0,
					"bgcolor" : [ 0.823529, 0.823529, 0.764706, 1.0 ],
					"border" : 1,
					"bordercolor" : [ 1.0, 1.0, 1.0, 1.0 ],
					"id" : "obj-6",
					"maxclass" : "panel",
					"mode" : 0,
					"numinlets" : 1,
					"numoutlets" : 0,
					"patching_rect" : [ 754.626959264278412, 71.7931067943573, 264.880271792411804, 165.823292667276405 ],
					"proportion" : 0.39,
					"rounded" : 0
				}

			}
 ],
		"lines" : [ 			{
				"patchline" : 				{
					"destination" : [ "obj-39", 0 ],
					"source" : [ "obj-1", 0 ]
				}

			}
, 			{
				"patchline" : 				{
					"destination" : [ "obj-2", 2 ],
					"order" : 0,
					"source" : [ "obj-10", 0 ]
				}

			}
, 			{
				"patchline" : 				{
					"destination" : [ "obj-2", 1 ],
					"order" : 1,
					"source" : [ "obj-10", 0 ]
				}

			}
, 			{
				"patchline" : 				{
					"destination" : [ "obj-2", 0 ],
					"source" : [ "obj-102", 0 ]
				}

			}
, 			{
				"patchline" : 				{
					"destination" : [ "obj-102", 0 ],
					"order" : 0,
					"source" : [ "obj-103", 0 ]
				}

			}
, 			{
				"patchline" : 				{
					"destination" : [ "obj-33", 0 ],
					"order" : 1,
					"source" : [ "obj-103", 0 ]
				}

			}
, 			{
				"patchline" : 				{
					"destination" : [ "obj-15", 0 ],
					"order" : 1,
					"source" : [ "obj-12", 0 ]
				}

			}
, 			{
				"patchline" : 				{
					"destination" : [ "obj-30", 0 ],
					"midpoints" : [ 785.902588543891966, 111.0, 882.0, 111.0, 882.0, 81.0, 905.5, 81.0 ],
					"order" : 0,
					"source" : [ "obj-12", 0 ]
				}

			}
, 			{
				"patchline" : 				{
					"destination" : [ "obj-18", 0 ],
					"source" : [ "obj-121", 1 ]
				}

			}
, 			{
				"patchline" : 				{
					"destination" : [ "obj-121", 0 ],
					"source" : [ "obj-131", 0 ]
				}

			}
, 			{
				"patchline" : 				{
					"destination" : [ "obj-103", 0 ],
					"source" : [ "obj-18", 0 ]
				}

			}
, 			{
				"patchline" : 				{
					"destination" : [ "obj-5", 0 ],
					"order" : 1,
					"source" : [ "obj-19", 0 ]
				}

			}
, 			{
				"patchline" : 				{
					"destination" : [ "obj-87", 0 ],
					"order" : 0,
					"source" : [ "obj-19", 0 ]
				}

			}
, 			{
				"patchline" : 				{
					"destination" : [ "obj-46", 1 ],
					"source" : [ "obj-2", 1 ]
				}

			}
, 			{
				"patchline" : 				{
					"destination" : [ "obj-46", 0 ],
					"source" : [ "obj-2", 0 ]
				}

			}
, 			{
				"patchline" : 				{
					"destination" : [ "obj-11", 0 ],
					"order" : 0,
					"source" : [ "obj-23", 0 ]
				}

			}
, 			{
				"patchline" : 				{
					"destination" : [ "obj-14", 0 ],
					"order" : 2,
					"source" : [ "obj-23", 0 ]
				}

			}
, 			{
				"patchline" : 				{
					"destination" : [ "obj-17", 0 ],
					"order" : 1,
					"source" : [ "obj-23", 0 ]
				}

			}
, 			{
				"patchline" : 				{
					"destination" : [ "obj-16", 1 ],
					"source" : [ "obj-29", 1 ]
				}

			}
, 			{
				"patchline" : 				{
					"destination" : [ "obj-16", 0 ],
					"source" : [ "obj-29", 0 ]
				}

			}
, 			{
				"patchline" : 				{
					"destination" : [ "obj-10", 0 ],
					"source" : [ "obj-3", 1 ]
				}

			}
, 			{
				"patchline" : 				{
					"destination" : [ "obj-31", 0 ],
					"source" : [ "obj-30", 0 ]
				}

			}
, 			{
				"patchline" : 				{
					"destination" : [ "obj-12", 1 ],
					"midpoints" : [ 784.249997496605033, 189.0, 852.0, 189.0, 852.0, 84.0, 842.902588543891966, 84.0 ],
					"order" : 0,
					"source" : [ "obj-31", 0 ]
				}

			}
, 			{
				"patchline" : 				{
					"destination" : [ "obj-131", 0 ],
					"order" : 1,
					"source" : [ "obj-31", 0 ]
				}

			}
, 			{
				"patchline" : 				{
					"destination" : [ "obj-39", 0 ],
					"source" : [ "obj-35", 0 ]
				}

			}
, 			{
				"patchline" : 				{
					"destination" : [ "obj-39", 0 ],
					"midpoints" : [ 209.364885926246643, 116.7931067943573, 144.067095160484314, 116.7931067943573 ],
					"source" : [ "obj-36", 0 ]
				}

			}
, 			{
				"patchline" : 				{
					"destination" : [ "obj-12", 0 ],
					"midpoints" : [ 143.567095160484314, 87.0, 153.0, 87.0, 153.0, 57.0, 785.902588543891966, 57.0 ],
					"order" : 0,
					"source" : [ "obj-37", 0 ]
				}

			}
, 			{
				"patchline" : 				{
					"destination" : [ "obj-38", 0 ],
					"order" : 1,
					"source" : [ "obj-37", 0 ]
				}

			}
, 			{
				"patchline" : 				{
					"destination" : [ "obj-39", 0 ],
					"source" : [ "obj-38", 0 ]
				}

			}
, 			{
				"patchline" : 				{
					"destination" : [ "obj-51", 0 ],
					"midpoints" : [ 144.067095160484314, 144.0, 144.067095160484314, 144.0 ],
					"order" : 1,
					"source" : [ "obj-39", 0 ]
				}

			}
, 			{
				"patchline" : 				{
					"destination" : [ "obj-9", 0 ],
					"order" : 0,
					"source" : [ "obj-39", 0 ]
				}

			}
, 			{
				"patchline" : 				{
					"destination" : [ "obj-55", 0 ],
					"source" : [ "obj-44", 0 ]
				}

			}
, 			{
				"patchline" : 				{
					"destination" : [ "obj-44", 0 ],
					"source" : [ "obj-46", 0 ]
				}

			}
, 			{
				"patchline" : 				{
					"destination" : [ "obj-20", 0 ],
					"order" : 0,
					"source" : [ "obj-51", 0 ]
				}

			}
, 			{
				"patchline" : 				{
					"destination" : [ "obj-21", 0 ],
					"order" : 1,
					"source" : [ "obj-51", 0 ]
				}

			}
, 			{
				"patchline" : 				{
					"destination" : [ "obj-29", 2 ],
					"midpoints" : [ 1060.0, 804.0, 1116.0, 804.0, 1116.0, 522.0, 1344.0, 522.0, 1344.0, 483.0, 1566.5, 483.0 ],
					"source" : [ "obj-55", 0 ]
				}

			}
, 			{
				"patchline" : 				{
					"destination" : [ "obj-121", 0 ],
					"order" : 1,
					"source" : [ "obj-87", 0 ]
				}

			}
, 			{
				"patchline" : 				{
					"destination" : [ "obj-23", 0 ],
					"order" : 0,
					"source" : [ "obj-87", 0 ]
				}

			}
, 			{
				"patchline" : 				{
					"destination" : [ "obj-89", 0 ],
					"order" : 2,
					"source" : [ "obj-87", 0 ]
				}

			}
, 			{
				"patchline" : 				{
					"destination" : [ "obj-90", 0 ],
					"source" : [ "obj-89", 0 ]
				}

			}
, 			{
				"patchline" : 				{
					"destination" : [ "obj-19", 0 ],
					"order" : 2,
					"source" : [ "obj-9", 0 ]
				}

			}
, 			{
				"patchline" : 				{
					"destination" : [ "obj-3", 0 ],
					"midpoints" : [ 387.5, 273.0, 756.0, 273.0, 756.0, 618.0, 936.5, 618.0 ],
					"order" : 0,
					"source" : [ "obj-9", 0 ]
				}

			}
, 			{
				"patchline" : 				{
					"destination" : [ "obj-98", 0 ],
					"order" : 1,
					"source" : [ "obj-9", 0 ]
				}

			}
, 			{
				"patchline" : 				{
					"destination" : [ "obj-4", 0 ],
					"source" : [ "obj-98", 0 ]
				}

			}
 ],
		"parameters" : 		{
			"obj-29" : [ "amxd~[1]", "amxd~[1]", 0 ],
			"obj-55::obj-100" : [ "score", "score", 0 ],
			"obj-55::obj-10::obj-2" : [ "pastebang", "pastebang", 0 ],
			"obj-55::obj-12" : [ "bypass[1]", "bypass", 0 ],
			"obj-55::obj-29" : [ "OutputLED[1]", "OutputLED", 0 ],
			"obj-55::obj-48" : [ "InputLED[1]", "InputLED", 0 ],
			"obj-55::obj-92" : [ "kslider", "kslider", 0 ],
			"parameterbanks" : 			{

			}
,
			"parameter_overrides" : 			{
				"obj-55::obj-12" : 				{
					"parameter_longname" : "bypass[1]"
				}
,
				"obj-55::obj-29" : 				{
					"parameter_longname" : "OutputLED[1]"
				}
,
				"obj-55::obj-48" : 				{
					"parameter_longname" : "InputLED[1]"
				}

			}
,
			"inherited_shortname" : 1
		}
,
		"dependency_cache" : [ 			{
				"name" : "Additive Heaven.amxd.maxsnap",
				"bootpath" : "~/Documents/Max 8/Snapshots",
				"patcherrelativepath" : "../../Documents/Max 8/Snapshots",
				"type" : "mx@s",
				"implicit" : 1
			}
, 			{
				"name" : "Additive Heaven.amxd_20210313.maxsnap",
				"bootpath" : "~/Documents/Max 8/Snapshots",
				"patcherrelativepath" : "../../Documents/Max 8/Snapshots",
				"type" : "mx@s",
				"implicit" : 1
			}
, 			{
				"name" : "Additive Heaven.amxd",
				"bootpath" : "C74:/packages/Max for Live/patchers/Max Instrument/Additive Heaven",
				"type" : "amxd",
				"implicit" : 1
			}
, 			{
				"name" : "bp.Quantizer-MIDI.maxpat",
				"bootpath" : "C74:/packages/BEAP/clippings/BEAP/MIDI",
				"type" : "JSON",
				"implicit" : 1
			}
, 			{
				"name" : "pastebang.maxpat",
				"bootpath" : "C74:/packages/BEAP/misc",
				"type" : "JSON",
				"implicit" : 1
			}
, 			{
				"name" : "cv.jit.resize.mxo",
				"type" : "iLaX"
			}
 ],
		"autosave" : 0,
		"boxgroups" : [ 			{
				"boxes" : [ "obj-6", "obj-30", "obj-12", "obj-131", "obj-31", "obj-15" ]
			}
 ]
	}

}
